<svg width="81" height="80" viewBox="0 0 81 80" fill="none" xmlns="http://www.w3.org/2000/svg">
<path d="M13.8333 70C12.8889 70 12.0978 69.68 11.46 69.04C10.8222 68.4 10.5022 67.6088 10.5 66.6666V63.3333C10.5 62.3888 10.82 61.5977 11.46 60.9599C12.1 60.3222 12.8911 60.0022 13.8333 60C14.7756 59.9977 15.5678 60.3177 16.21 60.9599C16.8522 61.6022 17.1711 62.3933 17.1667 63.3333V66.6666C17.1667 67.6111 16.8467 68.4033 16.2067 69.0433C15.5667 69.6833 14.7756 70.0022 13.8333 70ZM27.1667 70C26.2222 70 25.4311 69.68 24.7933 69.04C24.1556 68.4 23.8356 67.6088 23.8333 66.6666V48.3333C23.8333 47.3888 24.1533 46.5977 24.7933 45.9599C25.4333 45.3222 26.2244 45.0022 27.1667 44.9999C28.1089 44.9977 28.9011 45.3177 29.5433 45.9599C30.1856 46.6022 30.5044 47.3933 30.5 48.3333V66.6666C30.5 67.6111 30.18 68.4033 29.54 69.0433C28.9 69.6833 28.1089 70.0022 27.1667 70ZM40.5 70C39.5556 70 38.7644 69.68 38.1267 69.04C37.4889 68.4 37.1689 67.6088 37.1667 66.6666V55C37.1667 54.0555 37.4867 53.2644 38.1267 52.6266C38.7667 51.9888 39.5578 51.6688 40.5 51.6666C41.4422 51.6644 42.2344 51.9844 42.8767 52.6266C43.5189 53.2688 43.8378 54.0599 43.8333 55V66.6666C43.8333 67.6111 43.5133 68.4033 42.8733 69.0433C42.2333 69.6833 41.4422 70.0022 40.5 70ZM53.8333 70C52.8889 70 52.0978 69.68 51.46 69.04C50.8222 68.4 50.5022 67.6088 50.5 66.6666V50C50.5 49.0555 50.82 48.2644 51.46 47.6266C52.1 46.9888 52.8911 46.6688 53.8333 46.6666C54.7756 46.6644 55.5678 46.9844 56.21 47.6266C56.8522 48.2688 57.1711 49.0599 57.1667 50V66.6666C57.1667 67.6111 56.8467 68.4033 56.2067 69.0433C55.5667 69.6833 54.7756 70.0022 53.8333 70ZM67.1667 70C66.2222 70 65.4311 69.68 64.7933 69.04C64.1556 68.4 63.8356 67.6088 63.8333 66.6666V36.6666C63.8333 35.7222 64.1533 34.9311 64.7933 34.2933C65.4333 33.6555 66.2244 33.3355 67.1667 33.3333C68.1089 33.3311 68.9011 33.6511 69.5433 34.2933C70.1856 34.9355 70.5044 35.7266 70.5 36.6666V66.6666C70.5 67.6111 70.18 68.4033 69.54 69.0433C68.9 69.6833 68.1089 70.0022 67.1667 70ZM47.1667 39.9166C46.2778 39.9166 45.43 39.75 44.6233 39.4166C43.8167 39.0833 43.0811 38.6111 42.4167 37.9999L33.8333 29.4166L16.1667 47.0833C15.5 47.75 14.7089 48.07 13.7933 48.0433C12.8778 48.0166 12.0856 47.6688 11.4167 47C10.8056 46.3333 10.5144 45.5422 10.5433 44.6266C10.5722 43.7111 10.8911 42.9466 11.5 42.3333L29.0833 24.75C29.75 24.0833 30.4867 23.5977 31.2933 23.2933C32.1 22.9888 32.9467 22.8355 33.8333 22.8333C34.72 22.8311 35.5811 22.9844 36.4167 23.2933C37.2522 23.6022 37.9744 24.0877 38.5833 24.75L47.1667 33.3333L64.8333 15.6666C65.5 14.9999 66.2922 14.6799 67.21 14.7066C68.1278 14.7333 68.9189 15.0811 69.5833 15.7499C70.1945 16.4166 70.4867 17.2088 70.46 18.1266C70.4333 19.0444 70.1133 19.8077 69.5 20.4166L51.9167 37.9999C51.3056 38.6111 50.5833 39.0833 49.75 39.4166C48.9167 39.75 48.0556 39.9166 47.1667 39.9166Z" fill="#14405A"/>
</svg>
