<svg width="81" height="80" viewBox="0 0 81 80" fill="none" xmlns="http://www.w3.org/2000/svg">
<path d="M50.5 50H75.5V55H50.5V50ZM50.5 60H75.5V65H50.5V60ZM50.5 70H75.5V75H50.5V70ZM40.5 50C39.1786 50.0301 37.8647 49.792 36.6379 49.3001C35.411 48.8082 34.2966 48.0727 33.362 47.138C32.4273 46.2034 31.6918 45.089 31.1999 43.8621C30.708 42.6353 30.4699 41.3215 30.5 40C30.4699 38.6786 30.708 37.3647 31.1999 36.1379C31.6918 34.911 32.4273 33.7966 33.362 32.862C34.2966 31.9273 35.411 31.1918 36.6379 30.6999C37.8647 30.208 39.1786 29.9699 40.5 30C41.8215 29.9699 43.1353 30.208 44.3621 30.6999C45.589 31.1918 46.7034 31.9273 47.638 32.862C48.5727 33.7966 49.3082 34.911 49.8001 36.1379C50.292 37.3647 50.5301 38.6786 50.5 40H55.5C55.5 37.0333 54.6203 34.1332 52.972 31.6665C51.3238 29.1997 48.9811 27.2771 46.2403 26.1418C43.4994 25.0065 40.4834 24.7094 37.5737 25.2882C34.6639 25.867 31.9912 27.2956 29.8934 29.3934C27.7956 31.4912 26.367 34.1639 25.7882 37.0737C25.2094 39.9834 25.5065 42.9994 26.6418 45.7403C27.7771 48.4811 29.6997 50.8238 32.1665 52.472C34.6332 54.1203 37.5333 55 40.5 55V50Z" fill="#14405A"/>
<path d="M73.7625 27.61L67.8625 17.39C67.2853 16.3875 66.3781 15.6164 65.2957 15.2083C64.2133 14.8003 63.0228 14.7805 61.9275 15.1525L55.8425 17.2125C54.7938 16.5065 53.6979 15.8733 52.5625 15.3175L51.3025 9.0175C51.0754 7.88449 50.4629 6.8651 49.5692 6.13267C48.6754 5.40025 47.5555 5 46.4 5H34.6C33.4441 5.00012 32.3239 5.40072 31.4301 6.13364C30.5363 6.86656 29.924 7.88653 29.6975 9.02L28.4375 15.3175C27.2893 15.8672 26.1808 16.4962 25.12 17.2L19.07 15.1525C17.9753 14.7818 16.786 14.8022 15.7046 15.2102C14.6233 15.6183 13.717 16.3886 13.14 17.39L7.23998 27.61C6.66201 28.6107 6.44854 29.7808 6.63586 30.9211C6.82319 32.0615 7.39975 33.1018 8.26748 33.865L13.095 38.1075C13.0525 38.7375 13 39.3625 13 40C13 40.645 13.025 41.2825 13.07 41.915L8.26998 46.135C7.40144 46.8976 6.82392 47.9376 6.63568 49.0779C6.44743 50.2183 6.6601 51.3887 7.23748 52.39L13.1375 62.61C13.7146 63.6125 14.6219 64.3836 15.7043 64.7917C16.7867 65.1997 17.9771 65.2195 19.0725 64.8475L25.1575 62.7875C26.2058 63.4948 27.3017 64.1289 28.4375 64.685L29.695 70.98C29.9216 72.1139 30.5343 73.1342 31.4286 73.8671C32.3229 74.6001 33.4437 75.0005 34.6 75H40.5V70H34.6L32.825 61.125C30.3696 60.2129 28.0902 58.8833 26.0875 57.195L17.47 60.11L11.57 49.89L18.3825 43.9025C17.9164 41.3172 17.9105 38.6699 18.365 36.0825L11.57 30.1075L17.47 19.89L26.0375 22.79C28.0545 21.0993 30.3516 19.7744 32.825 18.875L34.6 10H46.4L48.175 18.875C50.6304 19.7873 52.9097 21.1168 54.9125 22.805L63.53 19.89L69.43 30.11L62.435 36.24L65.73 40L72.73 33.865C73.5985 33.1024 74.1761 32.0624 74.3643 30.9221C74.5525 29.7817 74.3399 28.6113 73.7625 27.61Z" fill="#14405A"/>
</svg>
